<svg xmlns="http://www.w3.org/2000/svg" viewBox="0 0 200 200">
  <defs>
    <radialGradient id="bg-grd" cx="50%" cy="50%" r="50%">
      <stop offset="0%" stop-color="#D2042D" stop-opacity="0.12"/>
      <stop offset="100%" stop-color="#D2042D" stop-opacity="0"/>
    </radialGradient>
    <filter id="glow-f" x="-30%" y="-30%" width="160%" height="160%">
      <feGaussianBlur stdDeviation="5" result="b"/>
      <feMerge><feMergeNode in="b"/><feMergeNode in="SourceGraphic"/></feMerge>
    </filter>
    <filter id="soft" x="-10%" y="-10%" width="120%" height="120%">
      <feGaussianBlur stdDeviation="2" result="b"/>
      <feMerge><feMergeNode in="b"/><feMergeNode in="SourceGraphic"/></feMerge>
    </filter>
  </defs>

  <!-- background glow -->
  <circle cx="100" cy="100" r="94" fill="url(#bg-grd)"/>

  <!-- outer ring -->
  <circle cx="100" cy="100" r="93" fill="none" stroke="#D2042D" stroke-width="1.8" opacity="0.55"/>
  <!-- inner ring -->
  <circle cx="100" cy="100" r="82" fill="none" stroke="#D2042D" stroke-width="0.6" opacity="0.2"/>

  <!-- Maple leaf (5-point, symmetric) -->
  <path d="
    M100,22
    C100,22 97,34 90,36 C83,38 79,28 71,32
    C77,41 87,41 85,48 C80,46 74,49 71,55
    C77,54 83,58 81,65
    C75,62 69,64 68,70 C66,64 60,62 54,65
    C52,58 58,54 64,55 C61,49 55,46 50,48
    C48,41 58,41 64,32 C56,28 52,38 45,36
    C38,34 40,22 40,22 L49,32
    C51,26 58,24 61,30 L64,41
    C68,36 73,34 77,37 L75,47
    C79,44 83,44 85,49 L81,57
    C85,55 89,57 89,63 C89,63 93,59 97,59
    L97,76 L100,86 L103,76 L103,59
    C107,59 111,63 111,63 C111,57 115,55 119,57
    L115,49 C117,44 121,44 125,47
    L123,37 C127,34 132,36 134,41
    L137,30 C140,24 147,26 149,32 L158,22
    C158,22 162,34 155,36 C148,38 144,28 136,32
    C142,41 152,41 150,48 C145,46 139,49 136,55
    C142,54 148,58 146,65 C140,62 134,64 132,70
    C130,64 124,62 118,65 C116,58 122,54 128,55
    C125,49 119,46 114,48 C112,41 122,41 128,32
    C120,28 116,38 109,36 C102,34 100,22 100,22 Z
  " fill="#D2042D" filter="url(#glow-f)" opacity="0.95"/>

  <!-- stem -->
  <rect x="97" y="86" width="6" height="22" rx="3" fill="#D2042D" opacity="0.75"/>

  <!-- decorative lines -->
  <line x1="28" y1="123" x2="66" y2="123" stroke="#D2042D" stroke-width="0.9" opacity="0.45"/>
  <line x1="134" y1="123" x2="172" y2="123" stroke="#D2042D" stroke-width="0.9" opacity="0.45"/>

  <!-- MAPLE text -->
  <text x="100" y="127" text-anchor="middle"
        font-family="'Orbitron','Trebuchet MS',monospace"
        font-weight="900" font-size="17"
        fill="#ff3355" letter-spacing="4"
        filter="url(#soft)">MAPLE</text>

  <!-- CLIENT text -->
  <text x="100" y="145" text-anchor="middle"
        font-family="'Orbitron','Trebuchet MS',monospace"
        font-weight="400" font-size="8.5"
        fill="rgba(255,255,255,0.65)" letter-spacing="8">CLIENT</text>
</svg>
